# xmcd
#
# Track frame offsets:
#	150
#	23132
#	47184
#	66486
#	94260
#	108924
#	124620
#	152983
#	169602
#	189930
#	220830
#	240709
#	260115
#	279138
#	298961
#	318128
#
# Disc length: 4517 seconds
#
# Revision: 0
# Processed by: cddbd v1.5.2PL0 Copyright (c) Steve Scherf et al.
# Submitted via: audiograbber 1.83.01
#
DISCID=e911a310
DTITLE=Various Artist - SC8922/SC8923
DYEAR=1900
DGENRE=Country
TTITLE0=Molly Hatchet--Satisfied Man
TTITLE1=The Black Crowes--Seeing Thin
TTITLE2=ZZ Top--Pearl Necklace
TTITLE3=The Outlaws--(Ghost)Riders In The Sky
TTITLE4=ZZ Top--Tube Snake Boogie
TTITLE5=38 Special--Teacher, Teacher
TTITLE6=Lynard Skynard--Simple Man
TTITLE7=Atlanta Rhythm Section--Doraville
TTITLE8=Gregg Allman--Midnight Rider
TTITLE9=Johnny Van Zant--Brickyard Road
TTITLE10=Marshall Tucker Band--Last Of Singing
TTITLE11=Trace Adkins--Honky Tonk Badabakonk
TTITLE12=Sara Evans--Real Fine Place To Start
TTITLE13=Keith Urban--Making Memories
TTITLE14=Reba McEntire--My Sister
TTITLE15=Big and Rich--Live This Life
EXTD=
EXTT0=
EXTT1=
EXTT2=
EXTT3=
EXTT4=
EXTT5=
EXTT6=
EXTT7=
EXTT8=
EXTT9=
EXTT10=
EXTT11=
EXTT12=
EXTT13=
EXTT14=
EXTT15=
PLAYORDER=
